<?xml version="1.0" encoding="UTF-8" standalone="no"?>
<!-- Created with Inkscape (http://www.inkscape.org/) -->

<svg
   width="474.7959mm"
   height="289.70508mm"
   viewBox="0 0 474.7959 289.70507"
   version="1.1"
   id="svg1"
   xml:space="preserve"
   inkscape:version="1.3.2 (091e20e, 2023-11-25)"
   sodipodi:docname="logo-nuclic-padrao.svg"
   xmlns:inkscape="http://www.inkscape.org/namespaces/inkscape"
   xmlns:sodipodi="http://sodipodi.sourceforge.net/DTD/sodipodi-0.dtd"
   xmlns="http://www.w3.org/2000/svg"
   xmlns:svg="http://www.w3.org/2000/svg"><sodipodi:namedview
     id="namedview1"
     pagecolor="#505050"
     bordercolor="#eeeeee"
     borderopacity="1"
     inkscape:showpageshadow="0"
     inkscape:pageopacity="0"
     inkscape:pagecheckerboard="0"
     inkscape:deskcolor="#505050"
     inkscape:document-units="mm"
     inkscape:zoom="0.5"
     inkscape:cx="743"
     inkscape:cy="612"
     inkscape:window-width="1920"
     inkscape:window-height="1016"
     inkscape:window-x="0"
     inkscape:window-y="27"
     inkscape:window-maximized="1"
     inkscape:current-layer="layer1" /><defs
     id="defs1" /><g
     inkscape:label="Layer 1"
     inkscape:groupmode="layer"
     id="layer1"
     transform="translate(571.25144,-9.2947383)"><path
       id="path4"
       style="fill:#ffffff;stroke-width:1.41421"
       inkscape:label="letra-C-final"
       transform="matrix(0.26458333,0,0,0.26458333,-64.293739,10.451037)"
       d="m -402.76953,720.92187 c -4.12591,0.0817 -8.1702,0.33213 -12.09375,0.77344 -62.12684,6.98779 -106.30757,42.47794 -122.55859,99.26563 -2.94209,10.28086 -3.61667,17.33458 -3.6504,38.86328 -0.0429,27.40014 2.10375,40.1658 10.04883,59.4668 17.57812,42.70254 58.56458,70.74341 109.14844,76.15429 32.17366,3.44157 70.09512,-2.47696 97.18164,-15.57422 10.56131,-5.10674 18.90512,-11.02748 24.25586,-19.44336 5.35074,-8.41587 6.85417,-18.45972 6.08984,-29.22461 -0.94809,-13.35334 -6.29586,-25.33268 -16.13671,-32.83203 -5.23828,-3.99188 -12.52148,-6.17235 -20.40821,-6.11914 h -0.002 c -8.53164,0.0582 -15.84641,2.1799 -33.08203,9.18164 -9.31276,3.78318 -14.44807,5.72923 -17.67383,6.5918 -3.22576,0.86257 -4.78622,0.93903 -9.36523,0.93359 -11.28915,-0.0134 -14.83275,-1.03968 -22.28125,-6.05078 -7.08473,-4.76636 -8.84255,-6.96128 -12.91993,-16.63086 -1.65513,-3.92518 -1.98712,-4.66624 -2.35156,-7.93945 -0.36444,-3.27321 -0.45833,-9.27448 -0.44726,-20.60742 0.0105,-10.77804 0.12859,-16.83732 0.48437,-20.36719 0.35578,-3.52987 0.67745,-4.43732 1.96875,-7.6543 5.77468,-14.38624 13.72071,-19.99258 30.74414,-21.02343 12.14021,-0.73515 17.10623,0.40919 35.84961,8.54882 13.12203,5.69847 19.70241,7.34233 28.99609,7.38282 4.36574,0.019 7.74914,-0.0446 11.38086,-0.875 3.63173,-0.83042 7.01822,-2.65052 9.58399,-4.48047 11.24401,-8.01945 15.99225,-22.09347 16.01172,-37.59766 0.0113,-9.05687 -1.1301,-17.19524 -5.4668,-24.32812 -4.3367,-7.13288 -10.92309,-12.03751 -19.28906,-16.92969 -22.22016,-12.99373 -55.14048,-20.05643 -84.01758,-19.48438 z" /><path
       id="path6"
       style="fill:#ffffff;stroke-width:1.41421"
       inkscape:label="pinto da letra-I"
       transform="matrix(0.26458333,0,0,0.26458333,-64.293739,10.451037)"
       d="m -616.62695,603.88086 c -14.86236,0 -19.94198,1.08906 -29.08008,5.58789 -17.57422,8.65204 -27.44727,24.78094 -27.44727,44.60547 0,11.21285 2.81738,21.46775 8.86914,29.72656 6.05177,8.25881 15.00463,14.18571 25.92579,18.09375 7.3946,2.6461 15.97495,3.23574 24.68554,2.82422 8.71059,-0.41152 17.26255,-1.82848 24.4375,-5.11328 18.67698,-8.5506 29.13477,-24.91663 29.13477,-45.53125 0,-20.53089 -10.39914,-36.68777 -29.22461,-45.61914 -3.72669,-1.76806 -7.34133,-3.18042 -11.58008,-3.84961 -4.23875,-0.66919 -8.69636,-0.72461 -15.7207,-0.72461 z" /><path
       id="path5"
       style="fill:#ffffff;stroke-width:1.41421"
       inkscape:label="letra-I"
       transform="matrix(0.26458333,0,0,0.26458333,-64.293739,10.451037)"
       d="m -614.96094,725.55273 c -21.11202,-0.44121 -43.40237,9.61073 -49.64062,30.61719 -2.69175,9.0641 -2.48211,22.99481 -2.47071,104.99219 l 0.0137,95.55469 a 7.3564156,7.3564156 0 0 0 0.97461,3.6582 l 4.20703,7.33594 c 5.75528,10.03496 14.3942,17.02137 25.66992,20.91797 5.49001,1.89722 12.77154,2.94185 18.96289,2.97265 20.78667,0.10332 38.18941,-8.81263 46.50391,-25.20312 l 3.9414,-7.76953 a 7.3564156,7.3564156 0 0 0 0.79492,-3.35743 l -0.40625,-99.09961 -0.40429,-99.0996 a 7.3564156,7.3564156 0 0 0 -1.22266,-4.03125 l -3.91797,-5.91602 c -9.64407,-14.56992 -26.58525,-21.2291 -43.00586,-21.57227 z" /><path
       id="path7"
       style="fill:#ffffff;stroke-width:1.41421"
       inkscape:label="letra-L"
       transform="matrix(0.26458333,0,0,0.26458333,-64.293739,10.451037)"
       d="m -758.06641,618.72461 c -19.02049,0.58956 -38.40998,9.40576 -47.4375,27.2207 l -3.48828,6.87891 a 10.376053,10.376053 0 0 0 -1.12109,4.6914 v 148.32813 c 0,54.15474 0.10934,91.57497 0.36914,115.9668 0.1299,12.19591 0.29757,21.12391 0.51172,27.34375 0.10707,3.10991 0.22288,5.53295 0.36719,7.45507 0.1443,1.92213 -0.1811,2.42051 0.93164,5.70118 4.64975,13.70874 16.00053,23.99706 30.63476,29.21875 15.22822,5.43361 33.88096,4.30057 48.23633,-3.04102 11.60128,-5.93313 20.74152,-15.84606 24.10938,-27.97266 0.9747,-3.5096 0.58768,-3.65166 0.70312,-5.75195 0.11544,-2.10028 0.21578,-4.83684 0.30859,-8.30078 0.18562,-6.92787 0.33736,-16.7292 0.46094,-29.41992 0.24717,-25.38144 0.37445,-62.29209 0.37695,-110.33594 0.004,-81.99727 0.20204,-120.29496 -1.10351,-140.67578 -0.65278,-10.19041 -1.54779,-16.2786 -4.08984,-21.66406 -2.54206,-5.38546 -6.13456,-8.12284 -8.44336,-10.43164 -11.1277,-11.1277 -26.53329,-15.66946 -41.32618,-15.21094 z" /><path
       id="path8"
       style="fill:#ffffff;stroke-width:1.41421"
       inkscape:label="letra-C"
       transform="matrix(0.26458333,0,0,0.26458333,-64.293739,10.451037)"
       d="m -929.16406,722.36914 c -4.84425,0.0251 -9.62868,0.27331 -14.30078,0.76953 -39.18904,4.1622 -70.07706,18.06113 -92.80076,42.60547 -30.781,33.24714 -41.8958,86.11599 -29.5176,134.71484 12.5121,49.12425 51.6658,84.17136 102.22656,91.64063 5.72694,0.84603 11.99526,1.76925 13.95312,2.05664 26.50469,3.89058 66.29841,-2.56317 92.14258,-14.50391 11.11463,-5.13527 19.62791,-10.82272 25.11328,-19.0664 5.48538,-8.24368 7.03848,-18.17271 6.40039,-29.19532 -0.58277,-10.06682 -2.45449,-16.40781 -6.5,-22.12695 -3.67214,-5.19133 -7.23234,-9.40509 -12.2832,-12.22265 -5.05086,-2.81757 -10.65303,-3.47848 -16.41015,-3.4004 -8.27441,0.11222 -15.27909,2.09382 -30.02735,8.14454 -21.0958,8.65494 -27.13284,9.8459 -36.82422,8.28515 -10.31301,-1.66086 -13.43807,-3.09524 -19.51562,-8.58594 -10.18636,-9.20278 -14.58919,-22.3442 -13.58008,-48.64648 0.49177,-12.81768 2.43965,-21.90939 5.51953,-28.21094 3.07988,-6.30154 7.05091,-10.21584 13.72461,-13.6289 3.73543,-1.91037 4.79556,-2.37829 6.76953,-2.72852 1.97397,-0.35022 5.65578,-0.49023 12.90625,-0.49023 h 13.70313 l 15.66992,6.76562 c 13.33792,5.7596 23.54914,9.12501 33.1582,9.30469 9.60907,0.17968 18.50607,-4.10445 24.44727,-10.87109 6.94485,-7.90975 9.74118,-18.5748 9.8164,-31.61915 0.0779,-13.50483 -4.11644,-24.03256 -13.07031,-31.91406 -20.17657,-17.76012 -56.81508,-27.25167 -90.7207,-27.07617 z" /><path
       id="path9"
       style="fill:#ffffff;stroke-width:1.41421"
       inkscape:label="letra-U"
       transform="matrix(0.26458333,0,0,0.26458333,-64.293739,10.451037)"
       d="m -1309.4883,719.05469 c -20.2168,0.61982 -40.954,10.11862 -50.6328,29.60742 -0.9563,1.9257 -2.1806,5.26026 -2.7305,8.59766 -0.5499,3.33739 -0.7873,7.00322 -0.9648,12.55273 -0.355,11.09903 -0.3541,29.84933 -0.3008,65.30273 0.054,36.18213 0.099,54.97114 0.5293,66.63477 0.4307,11.66363 1.5835,17.42794 3.1387,23.0957 6.5428,23.84566 17.5045,42.32743 34.0176,54.79492 12.1519,9.17483 29.7426,15.68097 45.6367,17.95899 33.8887,4.85709 65.909,-3.06523 87.2539,-22.93945 3.9772,6.30032 9.0876,11.73262 15.4258,15.52539 10.132,6.06305 22.3156,8.21625 35.4218,7.42968 8.8646,-0.532 16.4908,-2.30181 23.3653,-5.8125 6.5037,-3.32128 11.9966,-7.95971 16.6718,-13.12304 4.6753,-5.16334 8.723,-10.25707 10.418,-18.22071 a 13.657288,13.657288 0 0 0 0,-0.002 c 0.8131,-3.82035 0.4277,-3.45682 0.5059,-5.23828 0.078,-1.78146 0.1481,-4.06191 0.2148,-6.86328 0.1335,-5.60274 0.2519,-13.25617 0.3516,-22.47266 0.1994,-18.43298 0.3222,-43.08791 0.3222,-69.57617 0,-48.03835 0.01,-71.97667 -0.3925,-85.24609 -0.2006,-6.63472 -0.4467,-10.62573 -1.1407,-14.3418 -0.6939,-3.71607 -2.3879,-7.32741 -3.164,-8.77734 -5.9018,-11.02597 -14.9859,-19.52232 -26.4863,-24.5 -8.5667,-3.70796 -16.1974,-3.63248 -25.0489,-3.65625 -8.8515,-0.0238 -16.3708,-0.21901 -25.0429,3.57031 -10.8606,4.74556 -19.7624,12.55999 -25.5528,22.65625 v -0.004 l -4.209,7.33594 a 13.657288,13.657288 0 0 0 -1.8105,6.76367 l -0.1094,43.83985 c -0.061,23.93804 -0.6167,53.1759 -1.166,63.66406 -0.4679,8.93314 -0.882,13.99023 -1.3379,16.65039 -0.4559,2.66015 -0.5992,2.92398 -1.9219,5.50586 -2.3274,4.5433 -11.1757,12.55618 -13.5234,13.53711 0.8015,-0.33486 -6.255,1.5482 -9.9218,1.89062 -7.3175,0.68331 -3.2944,1.41945 -9.6367,-1.68359 -5.2077,-2.54784 -3.5419,-1.01024 -6.0782,-5.45117 a 13.657288,13.657288 0 0 0 0,-0.004 l -2.2871,-4 -0.6465,-63.83789 c -0.2382,-23.51698 -0.537,-40.8378 -0.9336,-52.91602 -0.1983,-6.0391 -0.4178,-10.75399 -0.6836,-14.41211 -0.2657,-3.65811 -0.099,-5.32216 -1.3906,-9.4707 -2.5595,-8.21868 -6.6615,-12.65579 -11.8887,-17.88281 -12.0622,-12.06228 -28.5449,-16.96452 -44.2695,-16.48242 z" /><path
       id="path10"
       style="fill:#ffffff;stroke-width:1.41421"
       transform="matrix(0.26458333,0,0,0.26458333,-64.293739,10.451037)"
       d="m -1676.7832,610.12109 c -2.1232,-0.0498 -4.2587,-0.01 -6.3945,0.11719 -20.2978,1.20429 -39.1009,12.73206 -49.3809,30.27344 -1.9852,3.38753 -5.1369,10.68948 -5.9824,17.7793 -0.8456,7.08981 -1.0751,15.82562 -1.666,33.25781 -0.7051,20.79869 -0.9174,86.31965 -0.5586,147.90039 0.576,98.85188 -1.0439,110.28194 4.1074,124.61914 6.4988,18.0863 20.6947,31.64263 39.0801,37.25394 4.878,1.4888 7.3452,1.4695 10.8496,1.7031 3.5044,0.2336 7.2249,0.3012 10.9609,0.1504 15.1776,-0.6127 30.2302,-7.09017 40.3672,-17.76955 4.6779,-4.92834 12.7279,-15.47439 14.4551,-28.63086 1.7272,-13.15647 1.677,-31.4587 2.2656,-71.19141 0.3381,-22.81539 0.5568,-34.10535 0.8438,-51.1289 21.6924,27.0888 45.0192,56.18901 66.6289,82.93359 14.0882,17.43586 26.7928,33.1118 36.3554,44.84375 9.5626,11.73195 14.5121,17.94799 18.0547,21.82422 12.1682,13.31403 30.561,20.33656 49.0703,19.30466 22.8862,-1.2758 43.584,-15.24196 52.9922,-36.04489 a 19.418669,19.418669 0 0 0 0,-0.002 c 6.4462,-14.25388 4.1797,-23.89996 4.1797,-160.50586 0,-73.46578 0.01,-110.13342 -0.3789,-129.83203 -0.1925,-9.8493 -0.4245,-15.39309 -1.0527,-20.18945 -0.6283,-4.79636 -2.6019,-10.051 -3.3633,-11.69727 -9.303,-20.11329 -29.4705,-33.37734 -51.7109,-34.83007 -16.4071,-1.07172 -32.9614,4.05729 -44.9825,14.63867 -2.9543,2.60046 -6.5876,5.24866 -10.4004,10.55859 -3.8128,5.30993 -6.1179,12.11998 -7.2168,18.94141 -2.1979,13.64286 -2.0789,31.52464 -2.7109,70.06836 -0.3742,22.81237 -0.6122,36.09099 -0.9102,53.42773 l -3.1758,-3.95312 c -36.4268,-45.32302 -65.1025,-80.83975 -85.3359,-105.69922 -10.1168,-12.42974 -18.1185,-22.19061 -23.959,-29.22266 -5.8405,-7.03205 -8.3838,-10.26883 -11.7715,-13.66797 -10.1017,-10.13566 -24.3953,-14.88156 -39.2578,-15.23047 z"
       inkscape:label="letra-N" /><path
       id="path3"
       style="fill:#ffffff;stroke-width:1.41421"
       transform="matrix(0.26458333,0,0,0.26458333,-64.293739,10.451037)"
       d="m -979.99609,56.673828 c -17.96417,-0.0077 -35.70371,0.405701 -45.47661,1.423828 -106.3187,11.076216 -202.8881,57.790354 -277.4921,134.234374 -21.2884,21.81339 -34.8415,38.73787 -52.5801,65.64844 -20.4293,30.99233 -35.8623,63.37307 -53.3242,111.58789 -0.7998,2.20835 -0.235,1.17536 -0.3829,1.2832 -0.1478,0.10785 -2.5115,1.2818 -7.5273,3.10742 -30.3449,11.04499 -53.7329,35.57331 -63.5156,66.54102 -2.9489,9.33504 -3.8867,16.25779 -3.8867,28.31445 0,18.35771 2.1403,29.37522 8.5039,43.14063 14.0787,30.4547 42.5473,53.52804 73.8808,59.17969 a 8.4510489,8.4510489 0 0 0 0.016,0.002 c 14.495,2.61149 36.9464,1.4097 50.4083,-3.08594 33.7705,-11.27783 59.5901,-38.51753 68.3886,-72.39062 3.7686,-14.51055 3.8412,-37.25263 0.014,-51.51758 -6.7247,-25.06261 -26.3464,-50.81774 -48.3398,-62.79883 -1.4373,-0.78295 -2.4687,-1.50616 -3.5567,-2.23242 0.5829,-1.85923 1.3869,-4.1732 2.4707,-6.98047 2.3514,-6.09041 5.7111,-13.91934 9.4942,-22.16992 7.5661,-16.50117 16.9625,-34.90093 23.2812,-44.93946 20.3166,-32.27684 55.3293,-71.33021 84.5957,-94.39648 54.8363,-43.21914 113.9013,-68.14439 186.6875,-78.67578 21.4571,-3.10416 72.94845,-3.13447 95.9336,0.006 82.26699,11.23962 155.90351,46.36796 213.6211,101.78906 2.39949,2.30402 5.30436,5.37139 8.10351,8.2793 -26.65403,-13.00448 -56.19523,-22.47112 -87.48437,-27.91602 -21.5079,-3.74277 -71.97312,-3.66051 -93.55078,0.14063 -83.54214,14.71686 -154.77806,59.67956 -198.58006,125.76953 -2.8676,4.32668 -4.6341,6.5441 -5.2031,7.07422 -0.5691,0.53011 0.4565,0.0863 -1.0313,0.33398 -22.7259,3.78324 -40.2959,12.95532 -57.2031,29.76367 -10.0124,9.95386 -14.701,16.21405 -19.6875,26.38282 -14.6595,29.89358 -14.413,61.6258 0.5976,92.0371 9.7754,19.80462 24.5453,34.57337 44.3516,44.35157 18.0819,8.92681 33.2328,12.11551 52.7168,11.04492 26.0723,-1.4326 46.2068,-10.74804 65.6816,-30.19922 13.61187,-13.5954 21.85368,-26.91491 26.98832,-43.89062 4.55834,-15.0705 4.43435,-40.40242 -0.0293,-55.72266 -5.70276,-19.5732 -19.39632,-40.05803 -35.19532,-52.50391 -1.4588,-1.14915 -1.1376,-0.89675 -1.9609,-1.63086 1.1014,-1.35961 1.7265,-2.24725 4.3457,-4.99609 4.0024,-4.20056 9.2663,-9.37786 14.8222,-14.60352 11.11198,-10.4513 23.9095,-21.39833 29.22074,-24.92773 24.59785,-16.34565 56.26951,-29.22098 86.79883,-35.21484 15.67181,-3.07685 64.45195,-3.10189 81.67969,0.0976 16.35367,3.0372 40.37112,10.61498 54.6875,17.22266 2.8524,1.31652 5.94635,2.87486 8.99609,4.44336 -26.69722,1.7468 -46.28209,8.41639 -71.77734,24.28906 -7.81877,4.86777 -6.49254,4.42309 -17.08985,5.13281 -45.69874,3.06056 -84.45712,35.29676 -94.78125,79.14258 -3.74519,15.90554 -2.93492,40.2658 2.33008,55.0918 5.68633,16.01239 13.23541,27.90418 25.50781,40.23047 19.38111,19.46617 39.58295,28.38708 67.11914,29.65234 20.18957,0.92769 32.42973,-1.61487 50.56446,-10.50391 24.3308,-11.92611 43.01224,-33.85859 51.97265,-60.61914 3.37195,-10.0704 4.22195,-16.13828 4.20508,-30.27148 -0.0268,-22.4186 -5.4864,-40.20458 -18.03515,-59.26563 0.27746,-0.0247 0.43212,-0.0673 0.71484,-0.0898 5.59565,-0.44581 12.37137,-0.42265 15.89258,0.0566 17.76255,2.41779 27.78114,7.43712 42.42578,21.49805 18.11202,17.39014 29.79088,41.55483 32.50586,67.54297 1.19465,11.43535 2.13244,19.84632 2.86133,25.57617 0.36444,2.86492 0.67233,5.04235 0.96093,6.71875 0.14431,0.8382 0.27412,1.53216 0.46485,2.29297 0.0954,0.3804 0.19531,0.7686 0.41211,1.35351 0.21679,0.58492 0.0784,1.27562 2.07031,3.26758 2.62378,2.62373 2.98729,1.94456 3.42969,2.08594 0.44239,0.14137 0.6476,0.18211 0.82422,0.2207 0.35323,0.0772 0.52878,0.10279 0.70898,0.13086 0.3604,0.0561 0.67027,0.095 1.04883,0.14063 0.75712,0.0912 1.73336,0.19574 2.96094,0.32031 2.45515,0.24914 5.88057,0.5739 9.99023,0.94922 8.21933,0.75063 19.15666,1.70452 30.24023,2.64453 11.08358,0.94 22.30744,1.86498 31.09375,2.55664 4.39316,0.34583 8.17465,0.63324 11.04297,0.83594 2.86832,0.20269 4.29787,0.33593 5.94532,0.33593 3.09835,0 5.58889,-1.78398 6.71679,-3.04882 1.1279,-1.26484 1.53643,-2.22652 1.875,-3.04688 0.67714,-1.64072 0.90717,-2.88635 1.14649,-4.30273 0.47863,-2.83277 0.7278,-6.16632 0.87695,-10.21875 0.2983,-8.10487 0.10498,-18.8769 -0.62305,-30.70118 -6.6941,-108.72299 -55.65066,-213.17687 -135.39648,-289.00195 -72.56288,-68.99528 -163.93554,-110.954888 -265.37695,-121.935545 -9.56025,-1.034859 -27.14092,-1.459137 -45.10547,-1.466797 z m 232.54297,326.419922 c -0.0957,0.0234 -0.0957,0.0234 0,0 z m -73.23633,28.69141 c 24.39098,1.78416 36.80127,32.47773 16.96093,50.36328 -2.48991,2.24458 -7.7419,5.54667 -8.09765,5.69531 -20.11812,8.40589 -40.67332,-5.0767 -40.83008,-26.66992 -0.11846,-16.31718 10.38103,-27.84103 26.86719,-29.33594 1.77407,-0.16087 3.47258,-0.17175 5.09961,-0.0527 z m -264.54685,8.33203 c 4.7533,-0.49632 9.7036,0.073 13.2968,1.44531 14.6588,5.59821 22.4678,21.6896 17.7852,37.31836 -1.0898,3.63746 -10.0564,13.98679 -15.6758,16.60351 -6.2309,2.90148 -19.0253,2.98711 -24.248,0.61524 -4.8206,-2.18921 -12.6943,-10.06189 -14.8828,-14.88086 -0.6836,-1.50512 -1.6833,-6.04397 -1.8536,-10.50781 -0.1702,-4.46385 0.4273,-9.16982 1.0977,-11.14258 1.7968,-5.28724 6.5288,-11.45224 12.4004,-15.45899 2.814,-1.92025 7.3257,-3.49575 12.0801,-3.99218 z m -295.75,21.10547 c 14.4858,0.011 28.3261,13.99264 28.3261,29.0039 0,9.98407 -7.1556,21.44075 -16.8144,26.25391 -10.0085,4.98746 -25.346,2.75126 -33.0527,-4.54297 -8.944,-8.46516 -11.5075,-24.67135 -5.6895,-35.27539 6.0829,-11.08657 13.5985,-15.4498 27.2305,-15.43945 z"
       inkscape:label="linhas" /><path
       style="fill:#09c0c0;fill-opacity:1"
       d="m -487.77124,298.7673 c -3.43079,-0.24359 -8.81459,-1.19081 -11.50938,-2.02494 -0.50932,-0.15766 -1.81901,-0.54261 -2.91041,-0.85545 -1.09141,-0.31283 -2.37537,-0.73894 -2.85325,-0.94691 -0.47788,-0.20796 -1.07319,-0.38215 -1.32292,-0.38709 -0.24972,-0.005 -0.93029,-0.23902 -1.51237,-0.52018 -0.58209,-0.28117 -1.23693,-0.51904 -1.45521,-0.52861 -0.21828,-0.01 -0.62799,-0.1922 -0.91047,-0.40585 -0.28247,-0.21365 -0.68456,-0.38846 -0.89353,-0.38846 -0.73551,0 -8.84248,-4.00674 -12.74809,-6.30055 -8.59459,-5.04769 -18.34018,-13.21507 -24.07708,-20.17803 -1.0914,-1.32465 -2.36149,-2.84781 -2.82241,-3.38479 -2.10253,-2.4495 -6.47441,-9.01102 -8.48489,-12.73455 -2.25482,-4.17605 -4.82527,-9.55832 -4.8407,-10.13596 -0.005,-0.17329 -0.18322,-0.5462 -0.39687,-0.82867 -0.21365,-0.28248 -0.38919,-0.6992 -0.39009,-0.92604 -9e-4,-0.22685 -0.15656,-0.71011 -0.34592,-1.07391 -0.35286,-0.67791 -1.84635,-5.29324 -2.78258,-8.59896 -0.83828,-2.95985 -1.01392,-3.77331 -2.11378,-9.78959 -0.82019,-4.48646 -1.11783,-8.70746 -1.1101,-15.7427 0.004,-4.00183 0.13181,-8.03908 0.28313,-8.97168 0.15132,-0.93261 0.37889,-2.71854 0.5057,-3.96875 0.12682,-1.25022 0.36957,-2.98749 0.53944,-3.86062 0.56468,-2.90243 1.32881,-6.33359 1.70878,-7.67291 1.39979,-4.93392 1.55579,-5.42409 2.7788,-8.73125 1.37562,-3.71985 1.65183,-4.36597 3.73258,-8.73125 1.48327,-3.11181 4.80157,-8.98065 6.24571,-11.04636 0.48324,-0.69122 1.31306,-1.88185 1.84405,-2.64583 4.20261,-6.04669 10.8002,-13.2062 16.87028,-18.30715 2.15326,-1.80947 7.1375,-5.50751 9.0195,-6.692 3.58229,-2.2546 8.25478,-4.88717 11.1125,-6.261 1.74625,-0.83949 3.49102,-1.69497 3.87728,-1.90107 0.38625,-0.2061 0.83927,-0.37472 1.0067,-0.37472 0.16743,0 0.80391,-0.21706 1.41439,-0.48236 1.94328,-0.8445 3.15206,-1.27899 6.26933,-2.25346 4.48665,-1.40255 5.52751,-1.69059 7.22521,-1.99942 0.84517,-0.15375 1.64696,-0.34771 1.78178,-0.43103 0.25128,-0.1553 3.8027,-0.77313 6.86801,-1.1948 7.54702,-1.0382 15.1805,-1.33126 20.24063,-0.77706 1.30969,0.14344 3.6314,0.38431 5.15937,0.53527 1.52797,0.15096 3.4925,0.43836 4.36563,0.63866 0.87312,0.20029 2.26719,0.44151 3.09792,0.53603 l 1.51042,0.17185 0.41266,-0.98765 c 0.22697,-0.54321 0.58242,-1.65249 0.7899,-2.46507 0.59303,-2.3226 1.82688,-6.279152 2.27596,-7.298254 0.26882,-0.610027 0.95784,-2.54593 1.31838,-3.704167 0.23216,-0.745812 0.61777,-1.633326 1.47503,-3.394879 0.20048,-0.411975 0.36452,-0.854169 0.36452,-0.982653 0,-0.267921 2.56113,-5.754565 3.69961,-7.925593 0.41971,-0.800364 1.13058,-2.169583 1.57971,-3.042708 0.44913,-0.873125 1.04857,-1.944688 1.33208,-2.38125 0.28352,-0.436563 0.69763,-1.150938 0.92024,-1.5875 0.22262,-0.436563 0.61336,-1.110651 0.86833,-1.497974 0.25496,-0.387324 0.81135,-1.2767 1.23641,-1.976391 4.3955,-7.235383 12.02208,-16.77836 18.56955,-23.235697 2.50108,-2.466648 5.89953,-5.640056 7.09742,-6.627439 0.70619,-0.582084 1.71362,-1.421904 2.23875,-1.866267 3.77213,-3.191994 8.53723,-6.627934 14.05165,-10.132139 0.80037,-0.508602 1.77781,-1.142415 2.1721,-1.408475 0.39429,-0.26606 0.79543,-0.483745 0.89143,-0.483745 0.096,0 0.84496,-0.402517 1.66436,-0.894483 0.8194,-0.491966 2.44232,-1.40308 3.60649,-2.024698 1.16416,-0.621619 2.29526,-1.229881 2.51354,-1.351695 0.76546,-0.42717 6.21868,-2.92206 7.79764,-3.567473 0.87729,-0.358601 1.83319,-0.762512 2.12423,-0.89758 0.29104,-0.135068 1.00542,-0.413711 1.5875,-0.619206 0.58209,-0.205495 2.24896,-0.814105 3.70417,-1.352466 1.45521,-0.538362 3.10774,-1.091893 3.67229,-1.23007 0.56456,-0.138176 1.24746,-0.369505 1.51758,-0.514064 0.27011,-0.144559 0.99882,-0.374677 1.61937,-0.511373 0.62054,-0.136697 2.02123,-0.504011 3.11263,-0.816255 6.42797,-1.838997 14.92155,-3.329454 23.30244,-4.0891209 4.32163,-0.391725 19.00619,-0.59779 19.52999,-0.27406 0.11181,0.0691 1.80142,0.250282 3.7547,0.402628 4.71947,0.3680929 11.81088,1.4446559 16.11912,2.4470789 0.65485,0.152366 1.905,0.430691 2.77813,0.618499 2.6207,0.563712 9.2205,2.450809 12.32664,3.524592 1.77464,0.613485 7.30789,2.789432 8.97232,3.528357 0.65484,0.290719 1.54781,0.687188 1.98437,0.881041 1.03615,0.460096 8.87792,4.323908 9.39271,4.627991 0.21828,0.128938 1.5875,0.916751 3.04271,1.750697 1.4552,0.833946 2.94349,1.71815 3.30729,1.964897 0.3638,0.246746 2.03067,1.357569 3.70416,2.468494 3.53866,2.349094 6.62397,4.528457 6.85203,4.840048 0.0877,0.119809 0.63568,0.54491 1.21777,0.944668 0.58208,0.399758 1.42865,1.054267 1.88126,1.454464 0.45261,0.400197 1.4002,1.203881 2.10576,1.785965 3.64993,3.011204 11.04163,10.313834 14.32785,14.155208 1.83216,2.141671 6.2155,7.683617 8.47542,10.715626 0.91772,1.231267 5.0571,7.762009 6.45647,10.186458 1.93524,3.352837 4.31209,7.980247 5.63996,10.980209 0.38647,0.873125 0.8768,1.972715 1.08962,2.443534 1.25792,2.782829 2.71698,6.549228 3.66575,9.462718 0.37911,1.16416 0.80527,2.323412 0.94703,2.576102 0.14176,0.25268 0.25602,0.60987 0.25392,0.79375 -0.003,0.2956 0.50803,2.12017 1.39155,4.96452 0.15821,0.50933 0.43841,1.58089 0.62267,2.38125 0.18427,0.80037 0.44997,1.93146 0.59045,2.51355 0.89995,3.72894 2.16165,10.68743 2.1617,11.92215 3e-5,0.57334 0.17957,1.98059 0.39899,3.12724 0.23971,1.25273 0.46786,4.6085 0.57164,8.40811 0.11757,4.30447 0.27563,6.46404 0.49504,6.76411 0.30075,0.41129 0.48838,0.41102 2.80175,-0.004 10.5692,-1.89643 20.07619,-1.62689 31.58358,0.89545 2.80628,0.61512 5.73724,1.44906 6.95429,1.97869 0.47788,0.20796 1.01101,0.37811 1.18474,0.37811 1.05939,0 12.38202,5.25282 14.68569,6.81302 0.48344,0.32742 0.93445,0.59531 1.00224,0.59531 0.0678,0 0.71735,0.41672 1.44346,0.92604 0.72611,0.50933 1.94528,1.35939 2.70927,1.88903 4.65712,3.22862 12.03097,10.04097 15.0755,13.92754 0.82313,1.05079 1.71182,2.15312 1.97487,2.44964 0.86146,0.97108 4.89235,6.9166 5.46433,8.05984 0.10921,0.21828 0.47969,0.87312 0.82329,1.4552 0.80155,1.35788 2.57489,4.91016 3.30208,6.61459 0.31043,0.7276 0.69382,1.5529 0.85198,1.83399 0.15815,0.28108 0.38614,0.81687 0.50664,1.19062 0.1205,0.37376 0.52957,1.51299 0.90906,2.53164 1.913855,5.13737 3.016935,9.84619 4.152705,17.72708 0.45851,3.18151 0.45198,14.4912 -0.0105,18.12396 -0.4262,3.34799 -1.45331,8.70522 -2.1559,11.24479 -0.91336,3.30145 -1.969665,6.68186 -2.397625,7.67292 -0.12568,0.29104 -0.53891,1.30307 -0.91829,2.24896 -2.69993,6.7316 -7.26524,14.34811 -12.11996,20.22028 -3.37868,4.08679 -8.60864,9.20774 -12.04536,11.7943 -0.48338,0.3638 -1.0558,0.82741 -1.27205,1.03025 -0.21625,0.20283 -0.77151,0.62652 -1.23392,0.94153 -0.46241,0.31501 -1.43605,0.98988 -2.16365,1.49971 -0.72761,0.50982 -1.50151,1.00967 -1.7198,1.11076 -0.21828,0.10109 -1.11125,0.65192 -1.98437,1.22408 -3.94076,2.58237 -13.09581,6.67052 -18.13357,8.09747 -4.84618,1.37269 -7.69542,1.9382 -11.23518,2.22995 -3.57366,0.29454 -319.42962,0.27298 -323.58541,-0.0221 z m 95.51458,-27.92226 c 4.92075,-0.93377 9.21622,-3.59643 12.15837,-7.5367 l 1.11103,-1.48793 0.3317,1.60595 c 0.42524,2.0588 1.03154,3.22911 2.40739,4.64683 2.91329,3.00195 8.81007,3.95058 13.49401,2.17082 1.8454,-0.70119 3.98177,-2.36731 4.99295,-3.89391 1.68151,-2.53863 1.62018,-1.4568 1.62018,-28.57633 0,-16.8593 -0.0917,-25.1049 -0.28932,-26.02654 -0.38354,-1.78837 -2.16202,-4.37746 -3.74843,-5.45693 -2.37573,-1.61656 -3.9291,-2.04605 -7.47163,-2.06586 -2.4388,-0.0136 -3.51242,0.0967 -4.63021,0.47601 -3.02982,1.02804 -5.07807,2.79255 -6.32324,5.44728 l -0.68821,1.46728 -0.14696,16.13959 c -0.14046,15.42625 -0.17126,16.21225 -0.69691,17.78376 -0.78075,2.33414 -1.69744,3.77483 -3.38086,5.31338 -2.02302,1.84893 -3.82947,2.5137 -6.89447,2.53715 -2.10074,0.0161 -2.5704,-0.071 -3.90481,-0.72386 -1.64613,-0.80538 -2.48684,-1.72851 -3.42274,-3.75833 l -0.60325,-1.30835 -0.13559,-17.59479 c -0.14788,-19.19152 -0.10076,-18.60718 -1.70555,-21.14933 -3.99118,-6.32244 -16.20018,-6.37242 -20.20299,-0.0827 -1.70338,2.67658 -1.67916,2.32279 -1.5663,22.87668 0.0987,17.97375 0.12148,18.68199 0.68121,21.16662 1.33749,5.93716 3.041,9.34997 6.26646,12.55422 1.77714,1.76544 2.62815,2.38045 4.65617,3.36491 5.10346,2.47735 11.95117,3.27638 18.092,2.11108 z m 87.97396,0.13451 c 7.1197,-0.79745 15.52053,-4.15493 17.55189,-7.01478 0.46016,-0.64782 1.04006,-1.73779 1.28867,-2.42214 0.57084,-1.57138 0.61794,-5.31219 0.089,-7.0697 -0.59535,-1.97817 -2.06156,-3.90391 -3.61688,-4.75042 -1.23123,-0.67012 -1.52883,-0.72244 -3.50051,-0.61552 -1.8462,0.10012 -2.57181,0.2981 -5.06531,1.38205 -7.28219,3.16566 -8.97249,3.57787 -12.64472,3.08367 -5.3615,-0.72155 -8.71129,-3.90183 -10.29371,-9.77284 -0.7261,-2.69391 -0.79981,-9.24786 -0.13703,-12.18393 1.57584,-6.98085 6.0395,-10.37451 13.15359,-10.00048 2.81585,0.14804 4.1621,0.55519 8.4978,2.56999 4.89228,2.27344 7.9843,2.62925 10.42394,1.19952 2.40611,-1.41007 3.64388,-4.18022 3.6701,-8.21371 0.0209,-3.224 -0.56605,-4.79542 -2.44935,-6.55703 -4.44541,-4.15816 -15.33053,-7.16142 -24.35131,-6.71864 -16.34584,0.80231 -28.10426,9.33006 -32.16814,23.32984 -2.91168,10.0305 -1.42292,22.41418 3.63307,30.22033 1.50274,2.32015 4.72538,5.74191 7.041,7.47606 7.07955,5.30183 17.01648,7.3863 28.87789,6.05773 z m 140.18372,0.004 c 4.87407,-0.54818 10.501,-2.27602 14.2623,-4.37946 2.39833,-1.34122 3.27253,-2.17085 4.18493,-3.97156 0.67257,-1.32738 0.793,-1.89453 0.87086,-4.10138 0.15007,-4.2535 -1.10257,-7.15381 -3.76278,-8.71224 -1.2703,-0.74418 -1.49472,-0.78752 -3.60362,-0.69597 -1.98964,0.0864 -2.58455,0.24371 -5.15937,1.36449 -7.23376,3.14872 -8.98046,3.57845 -12.5774,3.09438 -5.56492,-0.74892 -9.13974,-4.27989 -10.48701,-10.35835 -0.59459,-2.6826 -0.59634,-8.9329 -0.003,-11.60748 1.54298,-6.95813 6.01727,-10.36399 13.14578,-10.00663 2.73221,0.13697 4.59683,0.71541 9.08816,2.81933 6.80292,3.18677 11.06419,2.11057 13.02149,-3.28862 0.74655,-2.05937 0.68479,-6.19265 -0.11945,-7.99406 -1.48818,-3.33338 -6.26411,-6.10052 -13.78811,-7.98875 -12.41061,-3.11458 -25.35579,-0.67681 -34.39584,6.47723 -5.60472,4.43542 -9.41104,11.01721 -11.02486,19.06391 -0.66607,3.32107 -0.66359,11.70525 0.004,15.03832 1.33076,6.63965 3.70669,11.48481 7.71313,15.72913 7.45686,7.89962 18.46603,11.11078 32.6306,9.51771 z m -340.2339,-0.53607 c 2.92203,-1.00436 5.18981,-3.44642 6.47415,-6.97169 0.19778,-0.54287 0.3334,-8.03035 0.42628,-23.53319 l 0.13621,-22.737 19.70807,24.58908 c 10.83945,13.524 20.33925,25.25949 21.11068,26.07887 1.67449,1.77856 3.64326,2.74812 6.36372,3.13395 6.27544,0.89002 11.62482,-2.70126 12.88549,-8.65059 0.57781,-2.72682 0.56818,-74.55638 -0.0103,-77.01012 -1.09113,-4.628 -4.52167,-7.79754 -9.29593,-8.58866 -4.40603,-0.7301 -9.29212,1.40128 -11.3333,4.94375 -1.66895,2.89647 -1.5802,1.55116 -1.72528,26.15336 l -0.13229,22.43397 -20.31798,-25.26416 c -11.1749,-13.89529 -20.6999,-25.58719 -21.16667,-25.98199 -1.26949,-1.07376 -3.43658,-1.97653 -5.51809,-2.29871 -6.11188,-0.94603 -11.64244,2.80946 -12.89471,8.75608 -0.39495,1.8755 -0.41884,74.47089 -0.0252,76.5466 1.11083,5.85734 6.07454,9.54404 12.16536,9.03556 0.94588,-0.079 2.3633,-0.36476 3.14982,-0.63511 z m 244.38031,0.0119 c 3.09897,-0.95268 5.71543,-3.36352 6.66134,-6.13784 0.43973,-1.28972 0.4745,-3.79394 0.54633,-39.3451 0.0535,-26.49909 -0.0103,-38.4765 -0.21136,-39.6521 -0.81171,-4.74638 -4.22306,-7.80034 -9.5555,-8.55445 -5.60912,-0.79323 -10.81492,1.63933 -12.85211,6.00551 l -0.74071,1.5875 -0.0704,38.87051 c -0.0624,34.44959 -0.0237,39.0537 0.34098,40.48125 0.72626,2.84324 2.32999,4.70188 5.28572,6.12586 3.0691,1.4786 7.04394,1.71076 10.59576,0.61886 z m 36.6244,0.1186 c 4.13704,-1.16171 6.66039,-3.76561 7.40623,-7.64265 0.21885,-1.13762 0.28116,-8.49022 0.22303,-26.31722 -0.0894,-27.42276 0.03,-25.58971 -1.83623,-28.18837 -4.50274,-6.26996 -17.04267,-5.56153 -20.44624,1.15509 -1.20998,2.38779 -1.24204,3.19371 -1.15943,29.14995 l 0.0779,24.47396 0.60413,1.49412 c 2.08444,5.15516 8.63567,7.69896 15.13061,5.87512 z m -0.43262,-76.15638 c 3.85593,-0.81699 6.70982,-2.92059 8.26205,-6.08995 0.72888,-1.48824 0.7775,-1.78601 0.7775,-4.7625 0,-2.94532 -0.0555,-3.29524 -0.76754,-4.83712 -1.35036,-2.92422 -4.19315,-5.09949 -7.90817,-6.05123 -2.33068,-0.59709 -7.41023,-0.38608 -9.58054,0.39798 -3.50986,1.26801 -6.01816,3.83343 -6.88725,7.04411 -0.65425,2.41698 -0.44092,6.06442 0.47431,8.10955 2.27295,5.07907 8.75477,7.6458 15.62964,6.18916 z m -201.25535,-34.91632 c 5.2029,-1.10707 9.7368,-3.64107 13.26719,-7.41508 2.98272,-3.18853 4.93872,-6.71852 6.04849,-10.91569 0.85448,-3.23164 0.97045,-8.52792 0.25562,-11.67383 -1.62211,-7.13876 -6.67388,-13.7644 -12.80713,-16.79717 -0.90951,-0.44974 -1.65365,-0.9206 -1.65365,-1.04637 0,-0.12576 0.59531,-1.81722 1.32291,-3.75878 5.31343,-14.178588 12.94365,-25.862881 23.84706,-36.517453 12.10499,-11.828724 26.36395,-20.130722 42.69566,-24.858702 16.01881,-4.637398 32.74075,-5.26165 49.34479,-1.842104 19.88022,4.094266 38.545,14.389254 52.45856,28.934729 2.66416,2.785156 7.33727,8.252043 7.33727,8.583582 0,0.08152 -1.27992,-0.686647 -2.84427,-1.707035 -9.58776,-6.253871 -21.274,-10.387124 -33.30988,-11.781217 -5.13836,-0.595166 -15.73747,-0.388618 -20.57901,0.401031 -21.91296,3.573975 -40.65473,15.570228 -52.14394,33.376359 l -1.11817,1.73295 -1.97878,0.30763 c -8.82429,1.37188 -16.74335,8.24206 -19.53645,16.94882 -4.60477,14.35417 4.09506,29.34482 18.79535,32.3862 3.33344,0.68966 8.67116,0.54467 11.64432,-0.3163 7.82896,-2.26711 14.23314,-8.09986 16.9171,-15.40763 1.23602,-3.36536 1.45279,-4.70806 1.44362,-8.94192 -0.0102,-4.73247 -0.452,-6.83615 -2.20601,-10.50547 -1.91765,-4.01163 -4.92581,-7.69568 -8.02249,-9.825 l -1.26049,-0.86673 1.23765,-1.63838 c 1.94417,-2.57366 7.89657,-8.366719 10.84801,-10.557609 19.97983,-14.831262 47.13501,-16.418395 68.5281,-4.00525 4.45423,2.584523 4.45221,2.392796 0.0237,2.259565 -7.84464,-0.236005 -14.95385,1.876705 -21.57605,6.411954 -2.13633,1.46308 -2.16912,1.47484 -4.11076,1.47484 -9.35275,0 -18.31894,5.54433 -22.46369,13.89063 -1.84699,3.71928 -2.6352,7.07663 -2.63316,11.21573 0.004,7.16091 2.58236,13.19791 7.76172,18.17019 2.37708,2.28204 3.84788,3.30199 6.66375,4.62107 3.78806,1.77449 6.04153,2.23816 10.76148,2.21424 3.3153,-0.0168 4.49562,-0.12866 6.1605,-0.58382 2.63564,-0.72057 6.13877,-2.36302 8.21789,-3.85297 1.87206,-1.34157 4.98129,-4.4941 6.20286,-6.28925 1.88705,-2.7731 3.44598,-6.56728 4.04176,-9.83702 0.38778,-2.12818 0.3839,-6.82885 -0.007,-8.80806 -0.76578,-3.8746 -2.50572,-7.8247 -4.75646,-10.79834 -0.84081,-1.11087 -1.21107,-1.79991 -1.00437,-1.86913 4.84734,-1.62338 10.87801,-0.80675 15.94456,2.1591 2.49814,1.46235 6.62116,5.44967 8.29696,8.02388 3.67196,5.64053 5.62331,12.24308 5.68723,19.24327 0.0229,2.50463 0.12479,3.53681 0.35823,3.628 0.17945,0.0701 0.25639,0.30955 0.17099,0.53211 -0.0854,0.22256 0.006,0.46002 0.20289,0.52768 0.197,0.0677 5.18022,0.48452 11.07381,0.92634 5.89359,0.44183 11.38365,0.87348 12.20012,0.95924 l 1.4845,0.15593 0.21888,-1.27847 c 0.12038,-0.70316 0.19139,-3.12394 0.1578,-5.37952 -0.19511,-13.10115 -2.9077,-26.61118 -7.87346,-39.2137 -8.84895,-22.456949 -25.38621,-42.318673 -45.82931,-55.042032 -16.60499,-10.334592 -33.89262,-16.028509 -53.68496,-17.681875 -4.84724,-0.404917 -17.20376,-0.181835 -22.03215,0.397764 -25.50291,3.061366 -47.98495,13.388422 -66.70486,30.640669 -13.75994,12.68115 -24.5593,29.506634 -30.67898,47.798064 l -1.27576,3.81319 -2.49044,0.83398 c -7.78662,2.60752 -13.74993,8.84101 -16.22573,16.96088 -0.65924,2.16212 -0.72144,2.73933 -0.72529,6.73056 -0.005,5.0381 0.40036,7.00873 2.2267,10.82897 3.35895,7.02606 9.92875,12.28266 17.3353,13.87023 2.42073,0.51888 8.02401,0.54732 10.34937,0.0525 z m -7.89735,-15.18799 c -1.99086,-0.65963 -3.16467,-1.41419 -4.42202,-2.84261 -3.6085,-4.09948 -3.36792,-10.09221 0.55237,-13.75918 4.51962,-4.22758 11.68638,-3.38769 15.01312,1.75942 3.28383,5.08072 1.37938,11.75447 -4.08384,14.31102 -2.24113,1.04875 -4.89514,1.24851 -7.05963,0.53135 z m 80.07975,-5.42357 c -2.99529,-0.77627 -5.31669,-2.65887 -6.66547,-5.40551 -0.66395,-1.35208 -0.74286,-1.79427 -0.74286,-4.16268 0,-2.45463 0.0634,-2.77873 0.85987,-4.39806 1.01933,-2.07232 2.67869,-3.69741 4.78233,-4.68356 1.29564,-0.60737 1.84622,-0.7039 4.01509,-0.7039 2.17341,0 2.71826,0.096 4.02644,0.7091 5.10573,2.39305 7.22285,8.17699 4.87234,13.31118 -1.82925,3.99561 -6.91718,6.42983 -11.14774,5.33343 z m 68.95582,-2.0613 c -5.58252,-0.9111 -9.39974,-6.88618 -7.84801,-12.28443 2.2764,-7.91925 12.42995,-9.90099 17.41166,-3.39836 1.14924,1.5001 2.04615,4.09991 2.04615,5.93101 0,6.01494 -5.61385,10.73036 -11.6098,9.75178 z"
       id="path2"
       inkscape:label="corpo-azul" /></g></svg>
